<svg width="338" height="108" viewBox="0 0 338 108" fill="none" xmlns="http://www.w3.org/2000/svg">
<path d="M20.4449 77.5556C16.9714 77.5556 13.8717 76.7598 11.1458 75.1682C8.41977 73.5312 6.26536 71.3484 4.68253 68.62C3.0997 65.8461 2.30829 62.7539 2.30829 59.3434C2.30829 55.9328 3.0997 52.8634 4.68253 50.135C6.26536 47.3611 8.41977 45.1783 11.1458 43.5867C13.8717 41.9497 16.9714 41.1312 20.4449 41.1312C23.9183 41.1312 27.018 41.9497 29.744 43.5867C32.47 45.1783 34.6244 47.3611 36.2072 50.135C37.79 52.8634 38.5815 55.9328 38.5815 59.3434C38.5815 62.7539 37.79 65.8461 36.2072 68.62C34.6244 71.3484 32.47 73.5312 29.744 75.1682C27.018 76.7598 23.9183 77.5556 20.4449 77.5556ZM20.4449 69.575C22.2915 69.575 23.8743 69.1202 25.1934 68.2107C26.5564 67.3013 27.5896 66.0735 28.2931 64.5274C29.0405 62.9813 29.4142 61.2533 29.4142 59.3434C29.4142 57.4335 29.0405 55.7055 28.2931 54.1594C27.5896 52.6133 26.5564 51.3855 25.1934 50.476C23.8743 49.5665 22.2915 49.1118 20.4449 49.1118C18.5982 49.1118 16.9934 49.5665 15.6304 50.476C14.3114 51.3855 13.2782 52.6133 12.5307 54.1594C11.8272 55.7055 11.4755 57.4335 11.4755 59.3434C11.4755 61.2533 11.8272 62.9813 12.5307 64.5274C13.2782 66.0735 14.3114 67.3013 15.6304 68.2107C16.9934 69.1202 18.5982 69.575 20.4449 69.575ZM44.8545 76.7371V51.8402C44.8545 48.748 45.6899 46.3379 47.3607 44.6099C49.0754 42.8364 51.4277 41.9497 54.4174 41.9497H63.7166V49.9303H56.0003C55.4287 49.9303 54.9231 50.135 54.4834 50.5442C54.0877 50.9535 53.8898 51.4764 53.8898 52.1131V76.7371H44.8545ZM86.1034 77.5556C82.4981 77.5556 79.3544 76.7825 76.6724 75.2364C74.0344 73.6903 71.9899 71.5076 70.539 68.6882C69.088 65.8234 68.3626 62.4811 68.3626 58.6613V26.9434H77.3979V46.247H77.4638C78.1673 45.2011 79.0247 44.2916 80.0359 43.5185C81.0911 42.7455 82.2563 42.1543 83.5313 41.7451C84.8504 41.3358 86.2134 41.1312 87.6203 41.1312C90.9179 41.1312 93.7758 41.8815 96.194 43.3821C98.6122 44.8827 100.481 46.9518 101.8 49.5893C103.163 52.1813 103.844 55.2053 103.844 58.6613C103.844 61.3897 103.449 63.9135 102.657 66.2326C101.866 68.5063 100.723 70.5072 99.2277 72.2352C97.7328 73.9177 95.8862 75.2364 93.6878 76.1914C91.4895 77.1009 88.9613 77.5556 86.1034 77.5556ZM86.1034 69.575C87.9061 69.575 89.445 69.1202 90.72 68.2107C91.9951 67.3013 92.9624 66.0735 93.6219 64.5274C94.3254 62.9813 94.6771 61.2533 94.6771 59.3434C94.6771 57.4335 94.3254 55.7055 93.6219 54.1594C92.9624 52.6133 91.9951 51.3855 90.72 50.476C89.445 49.5665 87.9061 49.1118 86.1034 49.1118C84.3447 49.1118 82.8059 49.5665 81.4869 50.476C80.2118 51.3855 79.2225 52.6133 78.5191 54.1594C77.8595 55.7055 77.5298 57.4335 77.5298 59.3434C77.5298 61.2533 77.8595 62.9813 78.5191 64.5274C79.2225 66.0735 80.2118 67.3013 81.4869 68.2107C82.8059 69.1202 84.3447 69.575 86.1034 69.575ZM110.427 76.7371V41.9497H119.528V76.7371H110.427ZM114.978 37.7888C113.439 37.7888 112.098 37.2204 110.955 36.0836C109.855 34.9013 109.306 33.5143 109.306 31.9227C109.306 30.3312 109.855 28.967 110.955 27.8301C112.098 26.6478 113.439 26.0566 114.978 26.0566C116.517 26.0566 117.836 26.6478 118.935 27.8301C120.078 28.967 120.65 30.3312 120.65 31.9227C120.65 33.5143 120.078 34.9013 118.935 36.0836C117.836 37.2204 116.517 37.7888 114.978 37.7888ZM139.683 76.7371C136.693 76.7371 134.341 75.8503 132.626 74.0769C130.956 72.3034 130.12 69.8933 130.12 66.8465V33.2187H139.155V66.5737C139.155 67.1649 139.353 67.6878 139.749 68.1425C140.189 68.5518 140.694 68.7564 141.266 68.7564H148.586V76.7371H139.683ZM124.382 49.9303V41.9497H148.586V49.9303H124.382ZM167.479 77.5556C164.401 77.5556 161.719 76.7371 159.433 75.1C157.147 73.463 155.366 71.2802 154.091 68.5518C152.86 65.7779 152.244 62.7312 152.244 59.4116C152.244 56.0011 152.948 52.9088 154.355 50.135C155.806 47.3611 157.872 45.1783 160.554 43.5867C163.236 41.9497 166.446 41.1312 170.183 41.1312C173.964 41.1312 177.152 41.9497 179.746 43.5867C182.34 45.2238 184.319 47.4293 185.682 50.2032C187.045 52.9771 187.726 56.0465 187.726 59.4116V76.7371H178.691V70.9392H178.559C177.899 72.167 177.064 73.2811 176.053 74.2815C175.085 75.2819 173.898 76.0777 172.491 76.6688C171.084 77.26 169.414 77.5556 167.479 77.5556ZM170.051 69.575C171.81 69.575 173.327 69.1202 174.602 68.2107C175.877 67.3013 176.844 66.0735 177.504 64.5274C178.207 62.9358 178.559 61.1851 178.559 59.2752C178.559 57.3653 178.207 55.66 177.504 54.1594C176.844 52.6133 175.877 51.3855 174.602 50.476C173.327 49.5665 171.81 49.1118 170.051 49.1118C168.248 49.1118 166.688 49.5665 165.369 50.476C164.094 51.3855 163.104 52.6133 162.401 54.1594C161.741 55.66 161.411 57.3653 161.411 59.2752C161.411 61.1851 161.741 62.9358 162.401 64.5274C163.104 66.0735 164.094 67.3013 165.369 68.2107C166.688 69.1202 168.248 69.575 170.051 69.575ZM212.042 77.5556C209.228 77.5556 206.7 77.1009 204.458 76.1914C202.259 75.2364 200.413 73.9177 198.918 72.2352C197.423 70.5072 196.28 68.5063 195.488 66.2326C194.697 63.9135 194.301 61.3897 194.301 58.6613C194.301 55.2053 194.961 52.1813 196.28 49.5893C197.643 46.9518 199.533 44.8827 201.951 43.3821C204.414 41.8815 207.272 41.1312 210.525 41.1312C211.932 41.1312 213.273 41.3358 214.548 41.7451C215.867 42.1543 217.054 42.7455 218.109 43.5185C219.165 44.2916 220.022 45.2011 220.682 46.247H220.748V26.9434H229.783V58.6613C229.783 62.4811 229.057 65.8234 227.606 68.6882C226.156 71.5076 224.111 73.6903 221.473 75.2364C218.835 76.7825 215.691 77.5556 212.042 77.5556ZM212.042 69.575C213.845 69.575 215.384 69.1202 216.659 68.2107C217.934 67.3013 218.901 66.0735 219.56 64.5274C220.264 62.9813 220.616 61.2533 220.616 59.3434C220.616 57.4335 220.264 55.7055 219.56 54.1594C218.901 52.6133 217.934 51.3855 216.659 50.476C215.384 49.5665 213.845 49.1118 212.042 49.1118C210.283 49.1118 208.744 49.5665 207.425 50.476C206.15 51.3855 205.161 52.6133 204.458 54.1594C203.798 55.7055 203.468 57.4335 203.468 59.3434C203.468 61.2533 203.798 62.9813 204.458 64.5274C205.161 66.0735 206.15 67.3013 207.425 68.2107C208.744 69.1202 210.283 69.575 212.042 69.575ZM254.964 76.7371C251.139 76.7371 247.797 75.9868 244.939 74.4861C242.125 72.94 239.927 70.8482 238.344 68.2107C236.805 65.5733 236.036 62.6175 236.036 59.3434C236.036 55.66 236.761 52.4541 238.212 49.7257C239.663 46.9973 241.642 44.8827 244.148 43.3821C246.654 41.8815 249.49 41.1312 252.656 41.1312C256.437 41.1312 259.493 41.9497 261.823 43.5867C264.197 45.2238 265.934 47.4293 267.033 50.2032C268.132 52.9316 268.682 55.9783 268.682 59.3434C268.682 59.7981 268.66 60.3438 268.616 60.9804C268.572 61.5716 268.506 62.0263 268.418 62.3446H245.665C246.016 63.7543 246.61 64.9366 247.445 65.8916C248.325 66.8465 249.402 67.5741 250.677 68.0743C251.996 68.5291 253.469 68.7564 255.096 68.7564H264.461V76.7371H254.964ZM245.599 56.0693H259.646C259.558 55.2053 259.405 54.4095 259.185 53.6819C258.965 52.9089 258.657 52.2267 258.261 51.6356C257.866 51.0444 257.404 50.5442 256.876 50.135C256.349 49.7257 255.733 49.4074 255.03 49.18C254.326 48.9526 253.557 48.839 252.722 48.839C251.622 48.839 250.633 49.0436 249.754 49.4529C248.918 49.8621 248.215 50.4078 247.643 51.0899C247.072 51.772 246.61 52.5451 246.258 53.4091C245.951 54.2731 245.731 55.1598 245.599 56.0693ZM289.111 77.5556C287.132 77.5556 285.33 77.0099 283.703 75.9185C282.12 74.8272 281.021 73.3948 280.405 71.6213L270.776 41.9497H280.603L288.385 67.8015C288.473 67.9834 288.583 68.1198 288.715 68.2107C288.847 68.3017 289.001 68.3472 289.177 68.3472C289.353 68.3472 289.507 68.3017 289.639 68.2107C289.814 68.1198 289.924 67.9834 289.968 67.8015L297.816 41.9497H307.445L297.816 71.5531C297.201 73.3265 296.08 74.7817 294.453 75.9185C292.87 77.0099 291.089 77.5556 289.111 77.5556Z" fill="#323231"/>
<path d="M323.941 40.1986C322.293 40.1986 320.743 39.8802 319.292 39.2436C317.863 38.607 316.599 37.7202 315.5 36.5834C314.4 35.4466 313.543 34.1392 312.928 32.6613C312.312 31.1607 312.004 29.5577 312.004 27.8525C312.004 26.1472 312.312 24.5556 312.928 23.0777C313.543 21.5771 314.4 20.2583 315.5 19.1215C316.599 17.9847 317.863 17.0979 319.292 16.4613C320.743 15.8247 322.293 15.5063 323.941 15.5063C325.59 15.5063 327.129 15.8247 328.558 16.4613C330.009 17.0979 331.284 17.9847 332.383 19.1215C333.482 20.2583 334.34 21.5771 334.955 23.0777C335.571 24.5556 335.879 26.1472 335.879 27.8525C335.879 29.5577 335.571 31.1607 334.955 32.6613C334.34 34.1392 333.482 35.4466 332.383 36.5834C331.284 37.7202 330.009 38.607 328.558 39.2436C327.129 39.8802 325.59 40.1986 323.941 40.1986ZM323.941 37.8794C325.304 37.8794 326.568 37.6293 327.734 37.1291C328.899 36.6061 329.921 35.8899 330.8 34.9805C331.68 34.0482 332.361 32.9796 332.845 31.7746C333.35 30.5468 333.603 29.2394 333.603 27.8525C333.603 26.4428 333.35 25.1354 332.845 23.9303C332.361 22.7253 331.68 21.668 330.8 20.7586C329.921 19.8491 328.899 19.1442 327.734 18.644C326.568 18.1211 325.315 17.8596 323.974 17.8596C322.611 17.8596 321.336 18.1211 320.149 18.644C318.984 19.1442 317.951 19.8491 317.05 20.7586C316.17 21.668 315.478 22.7253 314.972 23.9303C314.488 25.1354 314.247 26.4314 314.247 27.8183C314.247 29.228 314.488 30.5468 314.972 31.7746C315.478 32.9796 316.17 34.0482 317.05 34.9805C317.951 35.8899 318.984 36.6061 320.149 37.1291C321.336 37.6293 322.6 37.8794 323.941 37.8794ZM319.16 34.3325V21.4066H324.766C325.579 21.4066 326.316 21.5998 326.975 21.9863C327.635 22.3501 328.162 22.8731 328.558 23.5552C328.976 24.2146 329.185 24.9762 329.185 25.8402C329.185 26.6815 328.987 27.4432 328.591 28.1253C328.195 28.7847 327.679 29.3076 327.041 29.6941L328.162 31.604C328.206 31.6722 328.261 31.7405 328.327 31.8087C328.415 31.8541 328.503 31.8769 328.591 31.8769H329.811V34.3325H328.03C327.525 34.3325 327.074 34.196 326.678 33.9232C326.283 33.6503 325.964 33.3207 325.722 32.9341L324.337 30.4445H322.062V34.3325H319.16ZM322.062 27.7842H324.469C324.975 27.7842 325.403 27.6251 325.755 27.3068C326.107 26.9657 326.283 26.4769 326.283 25.8402C326.283 25.2946 326.096 24.8739 325.722 24.5783C325.37 24.26 324.953 24.1009 324.469 24.1009H322.062V27.7842Z" fill="#323231"/>
</svg>
