<svg width="114" height="35" viewBox="0 0 114 35" fill="none" xmlns="http://www.w3.org/2000/svg">
<path d="M6.89561 25.1337C5.7241 25.1337 4.67863 24.8758 3.75922 24.36C2.8398 23.8295 2.11317 23.1221 1.57931 22.2379C1.04546 21.339 0.778534 20.3368 0.778534 19.2316C0.778534 18.1263 1.04546 17.1316 1.57931 16.2474C2.11317 15.3484 2.8398 14.6411 3.75922 14.1253C4.67863 13.5947 5.7241 13.3295 6.89561 13.3295C8.06712 13.3295 9.11258 13.5947 10.032 14.1253C10.9514 14.6411 11.678 15.3484 12.2119 16.2474C12.7458 17.1316 13.0127 18.1263 13.0127 19.2316C13.0127 20.3368 12.7458 21.339 12.2119 22.2379C11.678 23.1221 10.9514 23.8295 10.032 24.36C9.11258 24.8758 8.06712 25.1337 6.89561 25.1337ZM6.89561 22.5474C7.51844 22.5474 8.05229 22.4 8.49717 22.1053C8.95688 21.8105 9.30536 21.4126 9.54263 20.9116C9.79473 20.4105 9.92078 19.8505 9.92078 19.2316C9.92078 18.6126 9.79473 18.0526 9.54263 17.5516C9.30536 17.0505 8.95688 16.6526 8.49717 16.3579C8.05229 16.0632 7.51844 15.9158 6.89561 15.9158C6.27278 15.9158 5.73151 16.0632 5.2718 16.3579C4.82692 16.6526 4.47844 17.0505 4.22634 17.5516C3.98907 18.0526 3.87044 18.6126 3.87044 19.2316C3.87044 19.8505 3.98907 20.4105 4.22634 20.9116C4.47844 21.4126 4.82692 21.8105 5.2718 22.1053C5.73151 22.4 6.27278 22.5474 6.89561 22.5474ZM15.1284 24.8684V16.8C15.1284 15.7979 15.4102 15.0168 15.9737 14.4568C16.5521 13.8821 17.3454 13.5947 18.3538 13.5947H21.4902V16.1811H18.8877C18.6949 16.1811 18.5243 16.2474 18.3761 16.38C18.2426 16.5126 18.1759 16.6821 18.1759 16.8884V24.8684H15.1284ZM29.0408 25.1337C27.8248 25.1337 26.7645 24.8832 25.8599 24.3821C24.9702 23.8811 24.2806 23.1737 23.7912 22.26C23.3019 21.3316 23.0572 20.2484 23.0572 19.0105V8.73158H26.1046V14.9874H26.1269C26.3641 14.6484 26.6533 14.3537 26.9944 14.1032C27.3503 13.8526 27.7432 13.6611 28.1733 13.5284C28.6182 13.3958 29.0779 13.3295 29.5524 13.3295C30.6646 13.3295 31.6285 13.5726 32.4441 14.059C33.2597 14.5453 33.89 15.2158 34.3349 16.0705C34.7946 16.9105 35.0244 17.8905 35.0244 19.0105C35.0244 19.8947 34.8909 20.7126 34.624 21.4642C34.3571 22.2011 33.9715 22.8495 33.4673 23.4095C32.9631 23.9547 32.3403 24.3821 31.5989 24.6916C30.8574 24.9863 30.0047 25.1337 29.0408 25.1337ZM29.0408 22.5474C29.6488 22.5474 30.1678 22.4 30.5979 22.1053C31.0279 21.8105 31.3542 21.4126 31.5766 20.9116C31.8139 20.4105 31.9325 19.8505 31.9325 19.2316C31.9325 18.6126 31.8139 18.0526 31.5766 17.5516C31.3542 17.0505 31.0279 16.6526 30.5979 16.3579C30.1678 16.0632 29.6488 15.9158 29.0408 15.9158C28.4476 15.9158 27.9286 16.0632 27.4837 16.3579C27.0537 16.6526 26.72 17.0505 26.4828 17.5516C26.2603 18.0526 26.1491 18.6126 26.1491 19.2316C26.1491 19.8505 26.2603 20.4105 26.4828 20.9116C26.72 21.4126 27.0537 21.8105 27.4837 22.1053C27.9286 22.4 28.4476 22.5474 29.0408 22.5474ZM37.2446 24.8684V13.5947H40.3143V24.8684H37.2446ZM38.7795 12.2463C38.2604 12.2463 37.8081 12.0621 37.4226 11.6937C37.0519 11.3105 36.8665 10.8611 36.8665 10.3453C36.8665 9.82948 37.0519 9.38737 37.4226 9.01895C37.8081 8.63579 38.2604 8.44421 38.7795 8.44421C39.2985 8.44421 39.7434 8.63579 40.1141 9.01895C40.4997 9.38737 40.6924 9.82948 40.6924 10.3453C40.6924 10.8611 40.4997 11.3105 40.1141 11.6937C39.7434 12.0621 39.2985 12.2463 38.7795 12.2463ZM47.112 24.8684C46.1036 24.8684 45.3103 24.5811 44.7319 24.0063C44.1684 23.4316 43.8867 22.6505 43.8867 21.6632V10.7653H46.9341V21.5747C46.9341 21.7663 47.0008 21.9358 47.1343 22.0832C47.2826 22.2158 47.4531 22.2821 47.6459 22.2821H50.115V24.8684H47.112ZM41.9514 16.1811V13.5947H50.115V16.1811H41.9514ZM56.487 25.1337C55.449 25.1337 54.5444 24.8684 53.7732 24.3379C53.0021 23.8074 52.4015 23.1 51.9715 22.2158C51.5563 21.3168 51.3487 20.3295 51.3487 19.2537C51.3487 18.1484 51.5859 17.1463 52.0605 16.2474C52.5498 15.3484 53.2468 14.6411 54.1514 14.1253C55.056 13.5947 56.1385 13.3295 57.399 13.3295C58.6743 13.3295 59.7494 13.5947 60.6244 14.1253C61.4993 14.6558 62.1666 15.3705 62.6263 16.2695C63.086 17.1684 63.3159 18.1632 63.3159 19.2537V24.8684H60.2685V22.9895H60.224C60.0015 23.3874 59.7198 23.7484 59.3787 24.0726C59.0525 24.3968 58.6521 24.6547 58.1775 24.8463C57.703 25.0379 57.1395 25.1337 56.487 25.1337ZM57.3545 22.5474C57.9477 22.5474 58.4593 22.4 58.8893 22.1053C59.3194 21.8105 59.6456 21.4126 59.8681 20.9116C60.1053 20.3958 60.224 19.8284 60.224 19.2095C60.224 18.5905 60.1053 18.0379 59.8681 17.5516C59.6456 17.0505 59.3194 16.6526 58.8893 16.3579C58.4593 16.0632 57.9477 15.9158 57.3545 15.9158C56.7465 15.9158 56.2201 16.0632 55.7752 16.3579C55.3451 16.6526 55.0115 17.0505 54.7742 17.5516C54.5518 18.0379 54.4406 18.5905 54.4406 19.2095C54.4406 19.8284 54.5518 20.3958 54.7742 20.9116C55.0115 21.4126 55.3451 21.8105 55.7752 22.1053C56.2201 22.4 56.7465 22.5474 57.3545 22.5474ZM71.5171 25.1337C70.568 25.1337 69.7154 24.9863 68.9591 24.6916C68.2176 24.3821 67.5948 23.9547 67.0906 23.4095C66.5864 22.8495 66.2008 22.2011 65.9339 21.4642C65.667 20.7126 65.5335 19.8947 65.5335 19.0105C65.5335 17.8905 65.756 16.9105 66.2008 16.0705C66.6605 15.2158 67.2982 14.5453 68.1138 14.059C68.9442 13.5726 69.9081 13.3295 71.0055 13.3295C71.48 13.3295 71.9323 13.3958 72.3624 13.5284C72.8073 13.6611 73.2077 13.8526 73.5636 14.1032C73.9195 14.3537 74.2086 14.6484 74.4311 14.9874H74.4533V8.73158H77.5007V19.0105C77.5007 20.2484 77.2561 21.3316 76.7667 22.26C76.2773 23.1737 75.5878 23.8811 74.698 24.3821C73.8082 24.8832 72.7479 25.1337 71.5171 25.1337ZM71.5171 22.5474C72.1251 22.5474 72.6441 22.4 73.0742 22.1053C73.5042 21.8105 73.8305 21.4126 74.0529 20.9116C74.2902 20.4105 74.4088 19.8505 74.4088 19.2316C74.4088 18.6126 74.2902 18.0526 74.0529 17.5516C73.8305 17.0505 73.5042 16.6526 73.0742 16.3579C72.6441 16.0632 72.1251 15.9158 71.5171 15.9158C70.924 15.9158 70.4049 16.0632 69.96 16.3579C69.53 16.6526 69.1963 17.0505 68.9591 17.5516C68.7366 18.0526 68.6254 18.6126 68.6254 19.2316C68.6254 19.8505 68.7366 20.4105 68.9591 20.9116C69.1963 21.4126 69.53 21.8105 69.96 22.1053C70.4049 22.4 70.924 22.5474 71.5171 22.5474ZM85.9937 24.8684C84.7036 24.8684 83.5766 24.6253 82.6127 24.139C81.6636 23.6379 80.9221 22.96 80.3883 22.1053C79.8692 21.2505 79.6097 20.2926 79.6097 19.2316C79.6097 18.0379 79.8544 16.999 80.3438 16.1147C80.8331 15.2305 81.5005 14.5453 82.3457 14.059C83.191 13.5726 84.1475 13.3295 85.2152 13.3295C86.4905 13.3295 87.5211 13.5947 88.3071 14.1253C89.1079 14.6558 89.6936 15.3705 90.0644 16.2695C90.4351 17.1537 90.6205 18.1411 90.6205 19.2316C90.6205 19.379 90.613 19.5558 90.5982 19.7621C90.5834 19.9537 90.5611 20.1011 90.5315 20.2042H82.8573C82.976 20.6611 83.1762 21.0442 83.4579 21.3537C83.7545 21.6632 84.1178 21.899 84.5479 22.0611C84.9928 22.2084 85.4895 22.2821 86.0382 22.2821H89.1969V24.8684H85.9937ZM82.8351 18.1705H87.5731C87.5434 17.8905 87.4915 17.6326 87.4173 17.3968C87.3432 17.1463 87.2394 16.9253 87.1059 16.7337C86.9725 16.5421 86.8167 16.38 86.6388 16.2474C86.4609 16.1147 86.2532 16.0116 86.016 15.9379C85.7787 15.8642 85.5192 15.8274 85.2374 15.8274C84.8667 15.8274 84.5331 15.8937 84.2365 16.0263C83.9547 16.159 83.7174 16.3358 83.5247 16.5568C83.3319 16.7779 83.1762 17.0284 83.0575 17.3084C82.9537 17.5884 82.8796 17.8758 82.8351 18.1705ZM97.5108 25.1337C96.8435 25.1337 96.2355 24.9568 95.6868 24.6032C95.1529 24.2495 94.7822 23.7853 94.5746 23.2105L91.3269 13.5947H94.6413L97.2661 21.9726C97.2958 22.0316 97.3328 22.0758 97.3773 22.1053C97.4218 22.1347 97.4737 22.1495 97.533 22.1495C97.5924 22.1495 97.6443 22.1347 97.6887 22.1053C97.7481 22.0758 97.7851 22.0316 97.8 21.9726L100.447 13.5947H103.695L100.447 23.1884C100.239 23.7632 99.8612 24.2347 99.3125 24.6032C98.7787 24.9568 98.1781 25.1337 97.5108 25.1337Z" fill="#FEFDEC"/>
<path d="M109.258 13.0274C108.702 13.0274 108.18 12.9242 107.69 12.7179C107.208 12.5116 106.782 12.2242 106.411 11.8558C106.04 11.4874 105.751 11.0637 105.544 10.5847C105.336 10.0984 105.232 9.57895 105.232 9.02631C105.232 8.47368 105.336 7.95789 105.544 7.47895C105.751 6.99263 106.04 6.56526 106.411 6.19684C106.782 5.82842 107.208 5.54105 107.69 5.33473C108.18 5.12842 108.702 5.02526 109.258 5.02526C109.814 5.02526 110.333 5.12842 110.815 5.33473C111.305 5.54105 111.735 5.82842 112.106 6.19684C112.476 6.56526 112.765 6.99263 112.973 7.47895C113.181 7.95789 113.284 8.47368 113.284 9.02631C113.284 9.57895 113.181 10.0984 112.973 10.5847C112.765 11.0637 112.476 11.4874 112.106 11.8558C111.735 12.2242 111.305 12.5116 110.815 12.7179C110.333 12.9242 109.814 13.0274 109.258 13.0274ZM109.258 12.2758C109.718 12.2758 110.144 12.1947 110.537 12.0326C110.93 11.8632 111.275 11.631 111.572 11.3363C111.868 11.0342 112.098 10.6879 112.261 10.2974C112.432 9.89947 112.517 9.47579 112.517 9.02631C112.517 8.56947 112.432 8.14579 112.261 7.75526C112.098 7.36473 111.868 7.0221 111.572 6.72737C111.275 6.43263 110.93 6.20421 110.537 6.0421C110.144 5.87263 109.722 5.78789 109.269 5.78789C108.81 5.78789 108.38 5.87263 107.979 6.0421C107.586 6.20421 107.238 6.43263 106.934 6.72737C106.637 7.0221 106.404 7.36473 106.233 7.75526C106.07 8.14579 105.989 8.56579 105.989 9.01526C105.989 9.4721 106.07 9.89947 106.233 10.2974C106.404 10.6879 106.637 11.0342 106.934 11.3363C107.238 11.631 107.586 11.8632 107.979 12.0326C108.38 12.1947 108.806 12.2758 109.258 12.2758ZM107.646 11.1263V6.93737H109.536C109.811 6.93737 110.059 7 110.282 7.12526C110.504 7.24316 110.682 7.41263 110.815 7.63368C110.956 7.84737 111.027 8.09421 111.027 8.37421C111.027 8.64684 110.96 8.89368 110.827 9.11473C110.693 9.32842 110.519 9.49789 110.304 9.62316L110.682 10.2421C110.697 10.2642 110.715 10.2863 110.738 10.3084C110.767 10.3232 110.797 10.3305 110.827 10.3305H111.238V11.1263H110.637C110.467 11.1263 110.315 11.0821 110.181 10.9937C110.048 10.9053 109.94 10.7984 109.859 10.6732L109.392 9.86631H108.624V11.1263H107.646ZM108.624 9.00421H109.436C109.607 9.00421 109.751 8.95263 109.87 8.84947C109.989 8.73894 110.048 8.58052 110.048 8.37421C110.048 8.19737 109.985 8.06105 109.859 7.96526C109.74 7.8621 109.599 7.81052 109.436 7.81052H108.624V9.00421Z" fill="#FEFDEC"/>
</svg>
